<svg xmlns="http://www.w3.org/2000/svg" xmlns:xlink="http://www.w3.org/1999/xlink" zoomAndPan="magnify" preserveAspectRatio="xMidYMid meet" version="1.0" viewBox="7.48 13.9 170.62 47.12"><defs><g/><clipPath id="453ec108f2"><path d="M 7.480469 13.898438 L 34 13.898438 L 34 45 L 7.480469 45 Z M 7.480469 13.898438 " clip-rule="nonzero"/></clipPath><clipPath id="963bee6331"><path d="M 7.480469 17 L 16 17 L 16 61.023438 L 7.480469 61.023438 Z M 7.480469 17 " clip-rule="nonzero"/></clipPath><clipPath id="1b66715901"><path d="M 33 13.898438 L 59.839844 13.898438 L 59.839844 45 L 33 45 Z M 33 13.898438 " clip-rule="nonzero"/></clipPath><clipPath id="12918691cb"><path d="M 51 17 L 59.839844 17 L 59.839844 61.023438 L 51 61.023438 Z M 51 17 " clip-rule="nonzero"/></clipPath><clipPath id="a8b6a01fca"><path d="M 7.480469 17 L 16 17 L 16 33 L 7.480469 33 Z M 7.480469 17 " clip-rule="nonzero"/></clipPath></defs><g clip-path="url(#453ec108f2)"><path fill="#000000" d="M 7.480469 13.902344 L 15.84375 13.902344 L 33.660156 31.796875 L 33.660156 44.125 L 15.84375 26.226562 L 7.480469 17.828125 Z M 7.480469 13.902344 " fill-opacity="1" fill-rule="nonzero"/></g><g clip-path="url(#963bee6331)"><path fill="#000000" d="M 15.84375 26.226562 L 15.84375 61.019531 L 13.480469 61.019531 L 7.480469 54.992188 L 7.480469 17.828125 C 7.480469 17.828125 15.84375 26.226562 15.84375 26.226562 Z M 15.84375 26.226562 " fill-opacity="1" fill-rule="nonzero"/></g><g clip-path="url(#1b66715901)"><path fill="#000000" d="M 59.839844 13.902344 L 51.476562 13.902344 L 33.660156 31.796875 L 33.660156 44.125 L 51.476562 26.226562 L 59.839844 17.828125 Z M 59.839844 13.902344 " fill-opacity="1" fill-rule="nonzero"/></g><g clip-path="url(#12918691cb)"><path fill="#000000" d="M 51.476562 26.226562 L 51.476562 61.019531 L 53.839844 61.019531 L 59.839844 54.992188 L 59.839844 17.828125 Z M 51.476562 26.226562 " fill-opacity="1" fill-rule="nonzero"/></g><g clip-path="url(#a8b6a01fca)"><path fill="#000000" d="M 15.84375 32.894531 L 7.480469 24.492188 L 7.480469 17.828125 C 7.480469 17.828125 15.84375 26.226562 15.84375 26.226562 Z M 15.84375 32.894531 " fill-opacity="1" fill-rule="nonzero"/></g><path fill="#000000" d="M 46.5 37.921875 C 47.050781 39.074219 47.453125 40.308594 47.679688 41.605469 L 45.378906 42.859375 C 45.425781 43.277344 45.445312 43.699219 45.445312 44.125 C 45.445312 44.582031 45.421875 45.035156 45.371094 45.476562 L 47.667969 46.730469 C 47.429688 48.027344 47.019531 49.265625 46.457031 50.414062 L 43.859375 50.070312 C 43.429688 50.820312 42.917969 51.515625 42.339844 52.148438 L 43.460938 54.515625 C 42.523438 55.410156 41.46875 56.179688 40.316406 56.792969 L 38.414062 54.980469 C 37.652344 55.324219 36.84375 55.585938 36.003906 55.757812 L 35.527344 58.335938 C 34.90625 58.417969 34.273438 58.460938 33.628906 58.460938 C 32.953125 58.460938 32.289062 58.414062 31.636719 58.324219 L 31.160156 55.738281 C 30.332031 55.558594 29.535156 55.296875 28.78125 54.953125 L 26.886719 56.761719 C 25.730469 56.140625 24.671875 55.363281 23.734375 54.457031 L 24.859375 52.085938 C 24.304688 51.464844 23.8125 50.785156 23.390625 50.058594 L 20.792969 50.402344 C 20.230469 49.242188 19.820312 47.996094 19.582031 46.683594 L 21.882812 45.429688 C 21.835938 45.003906 21.8125 44.566406 21.8125 44.125 C 21.8125 43.714844 21.832031 43.308594 21.875 42.90625 L 19.570312 41.652344 C 19.796875 40.34375 20.199219 39.09375 20.753906 37.933594 L 20.875 37.949219 L 26.640625 43.742188 C 26.632812 43.867188 26.628906 43.996094 26.628906 44.125 C 26.628906 48.007812 29.761719 51.15625 33.628906 51.15625 C 37.496094 51.15625 40.628906 48.007812 40.628906 44.125 C 40.628906 44.015625 40.625 43.90625 40.621094 43.800781 L 46.464844 37.925781 Z M 46.5 37.921875 " fill-opacity="1" fill-rule="nonzero"/><g fill="#000000" fill-opacity="1"><g transform="translate(67.963293, 33.211413)"><g><path d="M 12.203125 0 L 12.1875 -7.125 L 8.703125 -1.25 L 7.453125 -1.25 L 3.984375 -6.96875 L 3.984375 0 L 1.40625 0 L 1.40625 -11.875 L 3.671875 -11.875 L 8.125 -4.5 L 12.5 -11.875 L 14.75 -11.875 L 14.78125 0 Z M 12.203125 0 "/></g></g></g><g fill="#000000" fill-opacity="1"><g transform="translate(84.147639, 33.211413)"><g><path d="M 7.15625 0.203125 C 5.925781 0.203125 4.816406 -0.0625 3.828125 -0.59375 C 2.835938 -1.125 2.0625 -1.851562 1.5 -2.78125 C 0.9375 -3.71875 0.65625 -4.769531 0.65625 -5.9375 C 0.65625 -7.101562 0.9375 -8.148438 1.5 -9.078125 C 2.0625 -10.015625 2.835938 -10.75 3.828125 -11.28125 C 4.816406 -11.8125 5.925781 -12.078125 7.15625 -12.078125 C 8.382812 -12.078125 9.488281 -11.8125 10.46875 -11.28125 C 11.457031 -10.75 12.234375 -10.015625 12.796875 -9.078125 C 13.359375 -8.148438 13.640625 -7.101562 13.640625 -5.9375 C 13.640625 -4.769531 13.359375 -3.71875 12.796875 -2.78125 C 12.234375 -1.851562 11.457031 -1.125 10.46875 -0.59375 C 9.488281 -0.0625 8.382812 0.203125 7.15625 0.203125 Z M 7.15625 -2.140625 C 7.851562 -2.140625 8.484375 -2.300781 9.046875 -2.625 C 9.617188 -2.945312 10.0625 -3.394531 10.375 -3.96875 C 10.695312 -4.539062 10.859375 -5.195312 10.859375 -5.9375 C 10.859375 -6.664062 10.695312 -7.316406 10.375 -7.890625 C 10.0625 -8.472656 9.617188 -8.925781 9.046875 -9.25 C 8.484375 -9.570312 7.851562 -9.734375 7.15625 -9.734375 C 6.457031 -9.734375 5.820312 -9.570312 5.25 -9.25 C 4.6875 -8.925781 4.242188 -8.472656 3.921875 -7.890625 C 3.597656 -7.316406 3.4375 -6.664062 3.4375 -5.9375 C 3.4375 -5.195312 3.597656 -4.539062 3.921875 -3.96875 C 4.242188 -3.394531 4.6875 -2.945312 5.25 -2.625 C 5.820312 -2.300781 6.457031 -2.140625 7.15625 -2.140625 Z M 7.15625 -2.140625 "/></g></g></g><g fill="#000000" fill-opacity="1"><g transform="translate(98.450877, 33.211413)"><g><path d="M 12.203125 0 L 12.1875 -7.125 L 8.703125 -1.25 L 7.453125 -1.25 L 3.984375 -6.96875 L 3.984375 0 L 1.40625 0 L 1.40625 -11.875 L 3.671875 -11.875 L 8.125 -4.5 L 12.5 -11.875 L 14.75 -11.875 L 14.78125 0 Z M 12.203125 0 "/></g></g></g><g fill="#000000" fill-opacity="1"><g transform="translate(114.635223, 33.211413)"><g><path d="M 10.59375 -2.203125 L 10.59375 0 L 1.40625 0 L 1.40625 -11.875 L 10.375 -11.875 L 10.375 -9.65625 L 4.140625 -9.65625 L 4.140625 -7.09375 L 9.640625 -7.09375 L 9.640625 -4.953125 L 4.140625 -4.953125 L 4.140625 -2.203125 Z M 10.59375 -2.203125 "/></g></g></g><g fill="#000000" fill-opacity="1"><g transform="translate(126.006636, 33.211413)"><g><path d="M 12.296875 -11.875 L 12.296875 0 L 10.03125 0 L 4.125 -7.203125 L 4.125 0 L 1.40625 0 L 1.40625 -11.875 L 3.671875 -11.875 L 9.578125 -4.65625 L 9.578125 -11.875 Z M 12.296875 -11.875 "/></g></g></g><g fill="#000000" fill-opacity="1"><g transform="translate(139.69978, 33.211413)"><g><path d="M 3.859375 -9.625 L 0.0625 -9.625 L 0.0625 -11.875 L 10.40625 -11.875 L 10.40625 -9.625 L 6.609375 -9.625 L 6.609375 0 L 3.859375 0 Z M 3.859375 -9.625 "/></g></g></g><g fill="#000000" fill-opacity="1"><g transform="translate(149.969593, 33.211413)"><g><path d="M 6.671875 0.203125 C 4.984375 0.203125 3.664062 -0.265625 2.71875 -1.203125 C 1.78125 -2.140625 1.3125 -3.476562 1.3125 -5.21875 L 1.3125 -11.875 L 4.046875 -11.875 L 4.046875 -5.328125 C 4.046875 -3.203125 4.929688 -2.140625 6.703125 -2.140625 C 7.554688 -2.140625 8.207031 -2.394531 8.65625 -2.90625 C 9.113281 -3.414062 9.34375 -4.222656 9.34375 -5.328125 L 9.34375 -11.875 L 12.046875 -11.875 L 12.046875 -5.21875 C 12.046875 -3.476562 11.570312 -2.140625 10.625 -1.203125 C 9.6875 -0.265625 8.367188 0.203125 6.671875 0.203125 Z M 6.671875 0.203125 "/></g></g></g><g fill="#000000" fill-opacity="1"><g transform="translate(163.323797, 33.211413)"><g><path d="M 12.203125 0 L 12.1875 -7.125 L 8.703125 -1.25 L 7.453125 -1.25 L 3.984375 -6.96875 L 3.984375 0 L 1.40625 0 L 1.40625 -11.875 L 3.671875 -11.875 L 8.125 -4.5 L 12.5 -11.875 L 14.75 -11.875 L 14.78125 0 Z M 12.203125 0 "/></g></g></g><g fill="#000000" fill-opacity="1"><g transform="translate(67.951606, 53.008658)"><g><path d="M 12.203125 0 L 12.1875 -7.125 L 8.703125 -1.25 L 7.453125 -1.25 L 3.984375 -6.96875 L 3.984375 0 L 1.40625 0 L 1.40625 -11.875 L 3.671875 -11.875 L 8.125 -4.5 L 12.5 -11.875 L 14.75 -11.875 L 14.78125 0 Z M 12.203125 0 "/></g></g></g><g fill="#000000" fill-opacity="1"><g transform="translate(84.135951, 53.008658)"><g><path d="M 1.40625 -11.875 L 4.15625 -11.875 L 4.15625 0 L 1.40625 0 Z M 1.40625 -11.875 "/></g></g></g><g fill="#000000" fill-opacity="1"><g transform="translate(89.69455, 53.008658)"><g><path d="M 12.296875 -11.875 L 12.296875 0 L 10.03125 0 L 4.125 -7.203125 L 4.125 0 L 1.40625 0 L 1.40625 -11.875 L 3.671875 -11.875 L 9.578125 -4.65625 L 9.578125 -11.875 Z M 12.296875 -11.875 "/></g></g></g><g fill="#000000" fill-opacity="1"><g transform="translate(103.387694, 53.008658)"><g><path d="M 1.40625 -11.875 L 6.796875 -11.875 C 8.085938 -11.875 9.226562 -11.625 10.21875 -11.125 C 11.207031 -10.632812 11.972656 -9.941406 12.515625 -9.046875 C 13.066406 -8.160156 13.34375 -7.125 13.34375 -5.9375 C 13.34375 -4.75 13.066406 -3.707031 12.515625 -2.8125 C 11.972656 -1.914062 11.207031 -1.222656 10.21875 -0.734375 C 9.226562 -0.242188 8.085938 0 6.796875 0 L 1.40625 0 Z M 6.65625 -2.25 C 7.84375 -2.25 8.789062 -2.578125 9.5 -3.234375 C 10.207031 -3.898438 10.5625 -4.800781 10.5625 -5.9375 C 10.5625 -7.0625 10.207031 -7.953125 9.5 -8.609375 C 8.789062 -9.273438 7.84375 -9.609375 6.65625 -9.609375 L 4.15625 -9.609375 L 4.15625 -2.25 Z M 6.65625 -2.25 "/></g></g></g><g fill="#000000" fill-opacity="1"><g transform="translate(117.38588, 53.008658)"><g><path d="M 5.3125 0.203125 C 4.375 0.203125 3.460938 0.0742188 2.578125 -0.171875 C 1.703125 -0.429688 1 -0.765625 0.46875 -1.171875 L 1.40625 -3.234375 C 1.914062 -2.859375 2.519531 -2.554688 3.21875 -2.328125 C 3.914062 -2.109375 4.617188 -2 5.328125 -2 C 6.109375 -2 6.679688 -2.113281 7.046875 -2.34375 C 7.421875 -2.582031 7.609375 -2.890625 7.609375 -3.265625 C 7.609375 -3.554688 7.5 -3.789062 7.28125 -3.96875 C 7.0625 -4.15625 6.78125 -4.304688 6.4375 -4.421875 C 6.09375 -4.535156 5.625 -4.660156 5.03125 -4.796875 C 4.125 -5.015625 3.382812 -5.226562 2.8125 -5.4375 C 2.238281 -5.65625 1.742188 -6 1.328125 -6.46875 C 0.921875 -6.945312 0.71875 -7.582031 0.71875 -8.375 C 0.71875 -9.0625 0.898438 -9.6875 1.265625 -10.25 C 1.640625 -10.8125 2.203125 -11.253906 2.953125 -11.578125 C 3.703125 -11.910156 4.625 -12.078125 5.71875 -12.078125 C 6.46875 -12.078125 7.203125 -11.984375 7.921875 -11.796875 C 8.648438 -11.617188 9.285156 -11.359375 9.828125 -11.015625 L 8.984375 -8.9375 C 7.890625 -9.550781 6.796875 -9.859375 5.703125 -9.859375 C 4.929688 -9.859375 4.359375 -9.734375 3.984375 -9.484375 C 3.617188 -9.242188 3.4375 -8.921875 3.4375 -8.515625 C 3.4375 -8.109375 3.648438 -7.804688 4.078125 -7.609375 C 4.503906 -7.410156 5.148438 -7.210938 6.015625 -7.015625 C 6.921875 -6.804688 7.660156 -6.59375 8.234375 -6.375 C 8.816406 -6.15625 9.3125 -5.8125 9.71875 -5.34375 C 10.132812 -4.882812 10.34375 -4.257812 10.34375 -3.46875 C 10.34375 -2.789062 10.148438 -2.171875 9.765625 -1.609375 C 9.390625 -1.054688 8.820312 -0.613281 8.0625 -0.28125 C 7.3125 0.0390625 6.394531 0.203125 5.3125 0.203125 Z M 5.3125 0.203125 "/></g></g></g></svg>